<svg id="Layer_1" data-name="Layer 1" xmlns="http://www.w3.org/2000/svg" viewBox="0 0 1024 1024"><defs><style>.cls-1{fill:#fff;}</style></defs><path d="M641.91,457.41q0,253.69.09,507.41c0,3.74-.84,4.59-4.59,4.59q-507.4-.15-1014.82,0c-3.75,0-4.59-.85-4.59-4.59Q-381.85,457.4-382-50c0-3.75.84-4.59,4.59-4.59q507.41.15,1014.82,0c3.75,0,4.59.84,4.59,4.59Q641.84,203.71,641.91,457.41Z" transform="translate(382 54.59)"/><path class="cls-1" d="M-98.47,413.57c39.61-1.86,79.21-.78,118.83.09,30.11.66,60.25-.05,90.38-.13a20.66,20.66,0,0,1,7.4.8c6.37,2.33,9.2,8.23,6.22,14.25C108.21,461.19,93.63,494.53,78,527.37c-4.86,10.18-12.19,16-24.42,15-27.58-2.22-55.25-.33-82.87-.79-11.25-.19-22.62,1.5-33.71-2.12-7.35-2.39-13.1-6.53-16.3-13.62-7.26-16.06-12-33.07-18.57-49.41-7-17.59-12.75-35.64-19.56-53.3-2.22-5.77.22-9.43,6.49-9.57,2.17-.05,4.33,0,6.5,0Z" transform="translate(382 54.59)"/><path class="cls-1" d="M407.79,318.11c-.8,1.72-1.39,3.28-2.22,4.7-23.51,40.24-42.09,83.1-65.52,123.39a35,35,0,0,0-1.69,3.61c-2.2,5.11-2.42,5.09-5.75.87-13.64-17.24-28.74-33.22-43.34-49.62-2.35-2.64-5.19-3.3-8.48-3.29-22.64.11-45.28-1.16-67.91.39-5.11.35-5.44-.41-3.24-5.33,7.09-15.8,16.7-30.26,24.07-45.91,3-6.31,6.29-12.47,9.21-18.81,3.78-8.19,10.43-12,19-11.86,27.3.46,54.6.17,81.91,0q29-.21,57.92-.36C404,315.87,406.43,315.5,407.79,318.11Z" transform="translate(382 54.59)"/><path class="cls-1" d="M-24.71,186.37c-18.33,0-36.65,0-55,0a26,26,0,0,1-10.7-2c-8.54-3.7-10.57-6.74-10.42-16,.29-18.5-1.1-37-1.51-55.43-.06-2.5-.33-5-.24-7.49.54-14.09,8.86-22.12,22.86-22q51.46.47,102.93,1c17.26.2,27.23,10,26.59,27.19-.68,18.15-1.07,36.24,0,54.4.79,13.61-6.06,20-19.57,20q-27.48,0-55,0Z" transform="translate(382 54.59)"/><path class="cls-1" d="M205.06,657.41c-.47,24.73-5.5,48.17-19.76,69a60.43,60.43,0,0,1-16.62,16.39c-11.79,7.8-24.22,8.19-36.31,1.16C114.09,733.3,102.61,717,96.6,697c-11.73-39-7.46-76.36,13.24-111.53,6.61-11.23,17.08-18.13,29.2-22.25,13.73-4.68,30.51,1.93,41.67,16,12.32,15.5,18.88,33.49,22.16,52.79A136.27,136.27,0,0,1,205.06,657.41Z" transform="translate(382 54.59)"/><path class="cls-1" d="M405.57,658.23c.05-27.56,5.54-50.14,18.16-70.29,9.79-15.63,23.26-27,43.43-26.53,6.88.14,12.42,3.36,17.79,7.06,16,11,23.94,27.33,29.08,45.21,9.81,34.17,8.69,67.73-7.16,100.09a75.85,75.85,0,0,1-20.53,26.09c-10.67,8.62-26.62,12.65-42,2.31-20-13.42-29.55-33.22-35.09-55.51C406.59,676.17,405.36,665.38,405.57,658.23Z" transform="translate(382 54.59)"/><path class="cls-1" d="M-177.13,657c.43-18.94,3.53-37.42,10.3-55.13,6.67-17.45,18.68-30.08,36-37.26,12.92-5.35,24.48-1.85,35,6.33,9.55,7.44,16.18,17.35,20.81,28.27,15.21,35.82,16.56,72.27,3,108.86a74,74,0,0,1-24.85,33.72c-11.47,8.7-23.79,8.78-36.14,2.52-14.25-7.23-24.64-18.51-31.68-32.82A122.42,122.42,0,0,1-177.13,657Z" transform="translate(382 54.59)"/><path class="cls-1" d="M92.64,545.58c17.78-15,32.57-31,48.39-46,8.7-8.22,16.3-17.53,26.28-24.46,13-9,23.75-9.43,37-.9C220,484.41,233.54,497.34,248,509.13c28,22.88,55.62,46.17,83.47,69.21,5.42,4.48,5.48,4.25,1.78,10.56-2.44,4.15-4.57,8.48-6.82,12.7-7.71-6.19-16-12.11-23.41-19-10.8-10-23.3-17.73-34.57-27q-36.18-29.94-72.2-60c-6.84-5.7-10.29-5.77-16.83.21-15.5,14.16-29.58,29.78-45.24,43.79-4.78,4.27-9.38,6.63-16.09,5.72C110.16,544.19,102.1,544.86,92.64,545.58Z" transform="translate(382 54.59)"/><path class="cls-1" d="M-5,274.84c-1,21.46-1.73,42.92-.76,64.38.1,2.22-.39,3.37-2.92,3.44-11,.31-22,0-32.93-.51-3.65-.16-2.73-2.68-2.75-4.63q-.21-33.19-.31-66.39c-.08-19.8,0-39.6-.27-59.4,0-3.49.9-4.62,4.41-4.54,10.64.27,21.29.4,31.94.23,3.35,0,3.67,1.19,3.66,4C-5,232.58-5,253.71-5,274.84Z" transform="translate(382 54.59)"/><path class="cls-1" d="M325.39,742.82c-17.65,8.84-36.8,3.68-49.67-13.28-7.9-10.4-12.18-22.48-14.92-35-3.95-18-7.41-36.23-4.74-54.85A96.15,96.15,0,0,1,266.2,608c6.45-12.1,16-15.2,29.73-10.16-9.9,12-15.09,26.28-17.36,41.23-3.9,25.71-1.38,50.84,11.59,74C298.9,728.67,308.82,736.7,325.39,742.82Z" transform="translate(382 54.59)"/><path class="cls-1" d="M121.52,396.34c5.43-10.76,10.21-21,15.69-30.76,2.47-4.41,6.69-7.3,12.39-6.85,6,.46,12,.76,17.93,1.08,8.11.43,16.24,1.49,24.28-.89,1.87-.55,4.36-.91,5.74.59,1.56,1.7-.8,3.15-1.49,4.62-3.42,7.38-7.08,14.66-10.52,22-1.18,2.54-2.69,5-2.63,8,.06,2.58-1.47,3-3.53,3C160.43,397,141.46,397.91,121.52,396.34Z" transform="translate(382 54.59)"/><path class="cls-1" d="M-24.09,394.36c-10,0-20-.09-30,.05-2.81,0-3.85-.85-3.8-3.68.13-7.32.2-14.65,0-22-.09-3.52,2.29-3.18,4.31-3.24,12.65-.4,25.29-.68,37.93-1,6.33-.18,12.68-.11,19-.74,4.05-.4,5.45,1.32,5.8,4.79a56.76,56.76,0,0,1,.36,6,97.76,97.76,0,0,1-.41,11c-.37,3,2.47,6.91-.42,8.82-2.11,1.39-5.8.44-8.79.45q-12,0-24,0Z" transform="translate(382 54.59)"/><path class="cls-1" d="M41.68,672.18c-8.81,0-17.62-.1-26.42.06-2.77,0-3.85-1-4-3.61A126.27,126.27,0,0,1,11,654.2c.11-3.05.94-3.89,4-3.86,13.46.15,26.92,0,40.38,0,4.93,0,9.81-1.4,14.81-.07,1.77.47,2.41.56,2.17,2.65-.61,5.25-1.65,10.51-.43,15.84.77,3.32-1.46,3.38-3.81,3.37-8.81,0-17.62,0-26.42,0Z" transform="translate(382 54.59)"/><path class="cls-1" d="M-225.92,650.37c8.31,0,16.62.1,24.93,0,3-.05,4.5.46,4.11,4a46.06,46.06,0,0,0,.57,13.9c.53,2.65-.25,4-3.29,3.92-17.11-.15-34.23-.25-51.35-.16-4.22,0-5.43-1.64-5-5.64a85.07,85.07,0,0,0,.23-11.95c-.14-3.35,1.27-4.21,4.41-4.14C-242.88,650.48-234.4,650.36-225.92,650.37Z" transform="translate(382 54.59)"/><path class="cls-1" d="M358.48,672.09c-8.32,0-16.65-.22-25,.1-3.93.14-5-1.39-4.74-4.89.29-4.48.46-9,.56-13.47.06-2.38.78-3.49,3.5-3.48,17.14.12,34.28.08,51.42,0,2.34,0,3.55.27,3.46,3.23a109.76,109.76,0,0,0,.63,14.94c.3,2.94-.55,3.74-3.41,3.69-8.81-.15-17.64-.05-26.46-.05Z" transform="translate(382 54.59)"/><path class="cls-1" d="M42.45,635.48c-9,0-18-.14-27,.07-3.52.08-3.84-1.52-3.21-4.22.08-.32.2-.63.28-1,3.2-14,3.2-14,17.42-14,14,0,28,.13,42-.11,4-.07,4.31,1.2,3.36,4.57a67.8,67.8,0,0,0-2.2,11.75c-.26,2.6-1.1,3.31-3.66,3.27-9-.15-18-.06-27-.06Z" transform="translate(382 54.59)"/><path class="cls-1" d="M359.5,635.48c-8.66,0-17.33-.13-26,.06-3.12.07-3.82-1-2.93-3.74a3.54,3.54,0,0,0,.1-.49c.7-4.79,1.12-10.09,3.9-13.78,3.12-4.13,8.54-.8,12.88-1,13.48-.5,27,0,40.47-.33,4.87-.13,5,1.46,3.8,5.26a27.3,27.3,0,0,0-1.7,8.77c.07,4.5-1.45,6.05-6.06,5.84-8.14-.37-16.32-.1-24.48-.1Z" transform="translate(382 54.59)"/><path class="cls-1" d="M-192.14,616.44c-1.34,5.65-2.63,11-2.83,16.47-.08,2.2-1,2.84-3.06,2.83q-26.44-.19-52.9-.27c-2.57,0-3.17-1.15-2.62-3.41,1-4,2.05-8,2.88-12.11.65-3.14,3.45-3.36,5.41-3.39C-227.65,616.35-210,616.44-192.14,616.44Z" transform="translate(382 54.59)"/><path class="cls-1" d="M79.92,704.23H23.54c-3.32,0-4.43-2.68-5.63-4.9-1.76-3.25-1.84-7-2.66-10.6-.47-2.05.87-2.18,2.31-2.17,18.32,0,36.63.05,55,0,1.86,0,2.74.72,3,2.47A82.87,82.87,0,0,0,79.92,704.23Z" transform="translate(382 54.59)"/><path class="cls-1" d="M396.76,704.18H343c-1.49,0-3,.18-4-1.43-2.42-4.16-5.3-8.07-6.64-12.79-.58-2.05-.74-3.43,2.22-3.41,18.16.09,36.32.05,54.48,0,1.7,0,2.66.32,3.05,2.32A80.4,80.4,0,0,0,396.76,704.18Z" transform="translate(382 54.59)"/><path class="cls-1" d="M-251.7,686.54c18.8,0,37.26,0,55.72,0,1.68,0,2.68.24,3,2.31a39.06,39.06,0,0,0,3.71,12.87c1.09,2,.15,2.5-1.86,2.5q-25.22-.11-50.42,0a4.28,4.28,0,0,1-4.05-2.21A37.57,37.57,0,0,1-251.7,686.54Z" transform="translate(382 54.59)"/><path class="cls-1" d="M-214.66,602.51c-8,0-16,.11-24,0-5.54-.1-5.93-1.21-3.61-6.38,2.76-6.12,7.51-8.86,13.92-8.4,14.46,1,28.93.35,43.39.33,3.62,0,4.19.13,2.78,4.3-3.06,9.08-8.83,11.42-17.56,10.35-4.92-.6-10-.1-15-.1Z" transform="translate(382 54.59)"/><path class="cls-1" d="M87.49,588.88c-2,4-4,8-5.9,12-.8,1.68-2.18,1.76-3.73,1.76H24c-.08-.73-.24-1.1-.13-1.35,5.93-13,5.93-13,20.13-13,12.81,0,25.63,0,38.44,0C84,588.26,85.72,587.8,87.49,588.88Z" transform="translate(382 54.59)"/><path class="cls-1" d="M26.83,716.44H82.21c1.5,0,2.89-.1,3.75,1.66,2,4,4.12,7.85,6.4,12.15-17.6,0-34.7-.06-51.81.06-2.41,0-3.57-1.51-5-2.79A45.81,45.81,0,0,1,26.83,716.44Z" transform="translate(382 54.59)"/><path class="cls-1" d="M403.89,588.36c-2,4.4-3.85,8.1-5.38,11.93-.78,1.94-2,2.27-3.83,2.26-17.64,0-35.28,0-53.46,0A79.55,79.55,0,0,1,349.39,588c1.13-1.55,2.08-2.38,3.87-.72s4.09,1.12,6.23,1.12C374.13,588.37,388.77,588.36,403.89,588.36Z" transform="translate(382 54.59)"/><path class="cls-1" d="M-140.49,545.31c11.79-11.71,22.53-22.28,33.15-33,1.86-1.88,2.5-.62,3.16.74,3.38,7,4.89,14.83,9,21.56.53.87,0,1.58-.55,2.23-4,4.82-8,9-15.28,8.52C-120.28,544.78-129.58,544.25-140.49,545.31Z" transform="translate(382 54.59)"/><path class="cls-1" d="M-240,716.41c17.51,0,34.92.1,52.34-.08,3.47,0,5.38.92,6.74,4.22s3.44,6,5.68,9.68h-9.89c-13.31,0-26.63-.06-39.95,0-3.13,0-5.47-.7-6.88-3.73C-233.91,722.48-237.67,719.77-240,716.41Z" transform="translate(382 54.59)"/><path class="cls-1" d="M410.31,730.26c-17.62,0-34.37,0-51.12,0a5.24,5.24,0,0,1-4.25-2.15c-2.95-3.54-5.81-7.14-8.81-10.85,2.06-1.36,3.91-.81,5.64-.81,15.45-.06,30.9,0,46.35-.11,2.89,0,4.42.8,5.7,3.47C405.44,723.22,407.77,726.27,410.31,730.26Z" transform="translate(382 54.59)"/><path class="cls-1" d="M110.19,565.44c-4.14,3.68-7.58,6.7-11,9.77a3.71,3.71,0,0,1-2.77.79H43.27a21.9,21.9,0,0,1,13.32-8.79C74.07,563.48,91.66,563.77,110.19,565.44Z" transform="translate(382 54.59)"/><path class="cls-1" d="M-160,564.82c-4.1,3.9-7.13,6.49-9.79,9.42-1.9,2.09-4.2,1.8-6.45,1.81-12.33.05-24.66,0-37,0-1.8,0-3.65-.36-5.2,1.09-1,.94-2.14,3-3.55,1.44-1.15-1.29-3.33-2.5-2.64-4.89.52-1.82,1.91-2.41,3.72-2.75,4.86-.91,8.81-4,13.88-5C-191.75,563.21-176.56,564.75-160,564.82Z" transform="translate(382 54.59)"/><path class="cls-1" d="M360.84,576c6.07-7.06,13.36-9.37,21.24-10.46,14.24-2,28.45-.69,43.34.11-3.39,3.15-6.43,5.85-9.33,8.71a5.84,5.84,0,0,1-4.48,1.65C395,576,378.44,576,360.84,576Z" transform="translate(382 54.59)"/><path class="cls-1" d="M109.59,748.65c-25.6.92-48,.41-56.34-7.21H68c8.3,0,16.65.53,24.9-.13C99.93,740.76,105.08,743,109.59,748.65Z" transform="translate(382 54.59)"/><path class="cls-1" d="M-159.42,748.4c-17.76-.09-35.74,2.59-52.34-5.34l.15-1.61c14.7,0,29.41-.13,44.11.09C-163.43,741.6-162.7,746.61-159.42,748.4Z" transform="translate(382 54.59)"/><path class="cls-1" d="M427.51,747.86c-18.3,3.43-41.65.76-50.74-5.39.72-1.71,2.26-1,3.38-1,12-.06,23.94.24,35.89-.15C421.24,741.16,422.48,746,427.51,747.86Z" transform="translate(382 54.59)"/><path class="cls-1" d="M-221.38,586.94c-1.56-2.56-1.35-4,0-6Z" transform="translate(382 54.59)"/><path d="M2.79,161.67c-14.21.29-27.55-12.3-27.91-26.33-.38-14.92,11.5-27.57,26.09-27.79S28.27,119.48,28.59,134C28.94,149.71,18.06,161.37,2.79,161.67Z" transform="translate(382 54.59)"/><path d="M186,653.82c-.11,13.81-1.22,25.74-5,37.22-3.54,10.68-9.66,19.6-19,26.2-7,4.93-14.17,5.23-21.69,1.69a32.83,32.83,0,0,1-14.59-13.2c-7.88-13.32-11.58-27.64-12.24-43.16-.7-16.75,1.1-32.86,7.52-48.37a53.62,53.62,0,0,1,9.09-14.83c11.24-12.89,28.74-12.5,40,.28,9.81,11.12,12.49,24.7,14.86,38.5A73.55,73.55,0,0,1,186,653.82Z" transform="translate(382 54.59)"/><path d="M501.18,653.18c-.34,20.41-3.42,40-16.18,57-10.9,14.49-27.84,14.94-39.29.9-10.16-12.46-14.92-27-16.44-42.62-1.9-19.42-.26-38.52,7.6-56.73,3.77-8.71,9.56-15.56,18-19.93,8.87-4.57,17.1-3.57,25.11,2.56,13.57,10.38,17.55,25.22,20,40.93A139.64,139.64,0,0,1,501.18,653.18Z" transform="translate(382 54.59)"/><path d="M-81.86,656c.06,15.76-2.77,32.63-12,48-.43.71-.84,1.43-1.29,2.13-15.24,23.63-35.48,14.91-45.9,1.26-8-10.54-10.76-23.25-12.52-35.9A112.62,112.62,0,0,1-147,615a55.42,55.42,0,0,1,7.28-13c11.1-15.07,27.78-16.42,41.24-3.36C-89.77,607-86.43,618-84,629.3-82.27,637.44-81.76,645.79-81.86,656Z" transform="translate(382 54.59)"/></svg>